<svg width="121" height="35" viewBox="0 0 121 35" fill="none" xmlns="http://www.w3.org/2000/svg">
<path d="M32.7725 34.7401V25.6746H34.5925L34.6618 26.888C34.9276 26.4373 35.2916 26.0791 35.7538 25.8133C36.2161 25.5475 36.7419 25.4146 37.3312 25.4146C37.9668 25.4146 38.5272 25.5735 39.0126 25.8913C39.4979 26.2091 39.8735 26.6453 40.1393 27.2C40.3126 26.8417 40.5466 26.5297 40.8413 26.264C41.1359 25.9982 41.4826 25.7902 41.8813 25.6399C42.28 25.4897 42.7104 25.4146 43.1726 25.4146C43.8429 25.4146 44.4264 25.5735 44.9233 25.8913C45.4202 26.2091 45.8045 26.6597 46.076 27.2433C46.3476 27.8269 46.4834 28.5231 46.4834 29.332V34.7401H44.49V29.5573C44.49 28.8062 44.3282 28.2284 44.0046 27.824C43.6811 27.4195 43.2362 27.2173 42.67 27.2173C42.2771 27.2173 41.9275 27.3126 41.6213 27.5033C41.315 27.694 41.0724 27.9598 40.8933 28.3007C40.7141 28.6416 40.6246 29.0258 40.6246 29.4533V34.7401H38.6312V29.5573C38.6312 28.8062 38.4694 28.2284 38.1459 27.824C37.8223 27.4195 37.3774 27.2173 36.8112 27.2173C36.4183 27.2173 36.0687 27.3126 35.7625 27.5033C35.4563 27.694 35.2136 27.9598 35.0345 28.3007C34.8554 28.6416 34.7658 29.0258 34.7658 29.4533V34.7401H32.7725Z" fill="#073B4C"/>
<path d="M51.4074 35.0001C50.9452 35.0001 50.5205 34.9308 50.1334 34.7921C49.7463 34.6534 49.4083 34.457 49.1194 34.2028C48.8305 33.9485 48.6051 33.6481 48.4434 33.3014C48.2816 32.9547 48.2007 32.5734 48.2007 32.1574C48.2007 31.5796 48.3538 31.074 48.66 30.6407C48.9663 30.2074 49.3967 29.8694 49.9514 29.6267C50.5061 29.384 51.1532 29.2627 51.8927 29.2627C52.2972 29.2627 52.6843 29.3002 53.0541 29.3753C53.4239 29.4505 53.7763 29.5573 54.1114 29.696V29.124C54.1114 28.7196 54.0363 28.3642 53.8861 28.058C53.7359 27.7518 53.5221 27.512 53.2448 27.3386C52.9674 27.1653 52.6323 27.0786 52.2394 27.0786C51.8234 27.0786 51.4478 27.1884 51.1127 27.408C50.7776 27.6275 50.5292 27.9338 50.3674 28.3267L48.53 27.9107C48.6687 27.4022 48.92 26.9631 49.284 26.5933C49.648 26.2235 50.0872 25.9346 50.6014 25.7266C51.1156 25.5186 51.6732 25.4146 52.2741 25.4146C52.8403 25.4146 53.3574 25.5071 53.8254 25.692C54.2935 25.8768 54.695 26.1368 55.0301 26.472C55.3652 26.8071 55.6252 27.2058 55.8101 27.668C55.995 28.1302 56.0875 28.6444 56.0875 29.2107V34.7401H54.2675L54.1981 33.5441C53.9554 33.9832 53.5914 34.3356 53.1061 34.6014C52.6208 34.8672 52.0545 35.0001 51.4074 35.0001ZM50.2114 32.0707C50.2114 32.3249 50.2807 32.5532 50.4194 32.7554C50.5581 32.9576 50.7516 33.1165 51.0001 33.2321C51.2485 33.3476 51.5403 33.4054 51.8754 33.4054C52.303 33.4054 52.6843 33.313 53.0194 33.1281C53.3545 32.9432 53.6203 32.6918 53.8168 32.3741C54.0132 32.0563 54.1114 31.6952 54.1114 31.2907V31.0827C53.811 30.9556 53.5019 30.8545 53.1841 30.7794C52.8663 30.7043 52.5399 30.6667 52.2047 30.6667C51.6039 30.6667 51.1214 30.7938 50.7574 31.048C50.3934 31.3023 50.2114 31.6432 50.2114 32.0707Z" fill="#073B4C"/>
<path d="M58.2349 34.7401V25.6746H60.0549L60.1242 26.9226C60.39 26.4604 60.7627 26.0935 61.2422 25.822C61.7218 25.5504 62.2736 25.4146 62.8976 25.4146C63.5794 25.4146 64.1716 25.5764 64.6743 25.9C65.177 26.2235 65.567 26.68 65.8443 27.2693C66.1217 27.8587 66.2603 28.552 66.2603 29.3493V34.7401H64.267V29.5747C64.267 28.8351 64.1023 28.2573 63.773 27.8413C63.4436 27.4253 62.9843 27.2173 62.3949 27.2173C61.9789 27.2173 61.6063 27.3155 61.2769 27.512C60.9476 27.7084 60.6905 27.9742 60.5056 28.3093C60.3207 28.6444 60.2282 29.0316 60.2282 29.4707V34.7401H58.2349Z" fill="#073B4C"/>
<path d="M72.3964 34.9985C71.5875 34.9985 70.8855 34.8252 70.2904 34.4785C69.6952 34.1318 69.233 33.6378 68.9037 32.9965C68.5743 32.3551 68.4097 31.6011 68.4097 30.7345V25.673H70.403V30.7691C70.403 31.5202 70.5821 32.1125 70.9404 32.5458C71.2986 32.9792 71.7897 33.1958 72.4137 33.1958C73.0377 33.1958 73.5289 32.9792 73.8871 32.5458C74.2453 32.1125 74.4244 31.5202 74.4244 30.7691V25.673H76.4178V30.7345C76.4178 31.5896 76.2531 32.3378 75.9238 32.9792C75.5945 33.6205 75.1293 34.1174 74.5284 34.4698C73.9275 34.8223 73.2169 34.9985 72.3964 34.9985Z" fill="#073B4C"/>
<path d="M82.2617 34.7371V21.8409H84.2551V26.7637C84.5324 26.3476 84.9022 26.0183 85.3644 25.7756C85.8267 25.533 86.3467 25.4116 86.9245 25.4116C87.6063 25.4116 88.1985 25.5734 88.7012 25.897C89.2038 26.2205 89.5938 26.677 89.8712 27.2663C90.1485 27.8557 90.2872 28.549 90.2872 29.3464V34.7371H88.2938V29.5717C88.2938 28.8321 88.1292 28.2543 87.7998 27.8383C87.4705 27.4223 87.0111 27.2143 86.4218 27.2143C86.0058 27.2143 85.6331 27.3126 85.3038 27.509C84.9744 27.7054 84.7173 27.9712 84.5324 28.3063C84.3475 28.6415 84.2551 29.0286 84.2551 29.4677V34.7371H82.2617Z" fill="#073B4C"/>
<path d="M96.267 34.9971C95.6661 34.9971 95.1085 34.8758 94.5943 34.6331C94.0801 34.3905 93.6323 34.0553 93.251 33.6278C92.8696 33.2002 92.572 32.6975 92.3583 32.1197C92.1445 31.542 92.0376 30.9179 92.0376 30.2477C92.0376 29.5659 92.1474 28.9304 92.3669 28.341C92.5865 27.7517 92.8927 27.2374 93.2856 26.7983C93.6785 26.3592 94.1378 26.0183 94.6636 25.7756C95.1894 25.533 95.7585 25.4116 96.371 25.4116C96.9719 25.4116 97.5208 25.5387 98.0177 25.793C98.5146 26.0472 98.9248 26.4054 99.2484 26.8677V21.8409H101.242V34.7371H99.4217L99.335 33.2811C99.0115 33.8127 98.5839 34.2316 98.0524 34.5378C97.5208 34.844 96.9257 34.9971 96.267 34.9971ZM96.683 33.1944C97.1799 33.1944 97.6248 33.0644 98.0177 32.8044C98.4106 32.5444 98.7197 32.1891 98.945 31.7384C99.1704 31.2877 99.2831 30.7793 99.2831 30.2131C99.2831 29.6353 99.1704 29.121 98.945 28.6704C98.7197 28.2197 98.4106 27.8643 98.0177 27.6043C97.6248 27.3443 97.1799 27.2143 96.683 27.2143C96.1861 27.2143 95.7412 27.3443 95.3483 27.6043C94.9554 27.8643 94.6463 28.2197 94.421 28.6704C94.1956 29.121 94.083 29.6353 94.083 30.2131C94.083 30.7793 94.1956 31.2877 94.421 31.7384C94.6463 32.1891 94.9554 32.5444 95.3483 32.8044C95.7412 33.0644 96.1861 33.1944 96.683 33.1944Z" fill="#073B4C"/>
<path d="M107.602 35.0001C106.932 35.0001 106.316 34.8817 105.756 34.6448C105.195 34.4079 104.707 34.0756 104.291 33.6481C103.875 33.2205 103.555 32.715 103.329 32.1314C103.104 31.5478 102.991 30.9036 102.991 30.1987C102.991 29.5169 103.104 28.8871 103.329 28.3093C103.555 27.7315 103.867 27.226 104.265 26.7926C104.664 26.3593 105.135 26.0213 105.678 25.7786C106.221 25.5359 106.81 25.4146 107.446 25.4146C108.082 25.4146 108.662 25.5273 109.188 25.7526C109.714 25.978 110.17 26.2986 110.557 26.7146C110.944 27.1306 111.242 27.6246 111.45 28.1967C111.658 28.7687 111.762 29.4013 111.762 30.0947V30.684H105.054C105.112 31.2156 105.253 31.6749 105.479 32.0621C105.704 32.4492 105.996 32.7467 106.354 32.9547C106.712 33.1627 107.128 33.2667 107.602 33.2667C108.55 33.2667 109.289 32.845 109.821 32.0014L111.571 32.6774C111.363 33.1512 111.06 33.5643 110.661 33.9167C110.263 34.2692 109.8 34.5379 109.275 34.7228C108.749 34.9077 108.191 35.0001 107.602 35.0001ZM107.446 27.0266C107.041 27.0266 106.68 27.1191 106.363 27.304C106.045 27.4889 105.776 27.7489 105.557 28.084C105.337 28.4191 105.187 28.812 105.106 29.2627H109.682C109.613 28.812 109.48 28.4191 109.283 28.084C109.087 27.7489 108.83 27.4889 108.512 27.304C108.194 27.1191 107.839 27.0266 107.446 27.0266Z" fill="#073B4C"/>
<path d="M113.026 34.7385V33.4212L117.741 27.2851H113.147V25.673H120.202V26.9904L115.487 33.1265H120.497V34.7385H113.026Z" fill="#073B4C"/>
<path d="M0.361117 34.7349H23.4387C23.638 34.7349 23.7998 34.5731 23.7998 34.3737V6.03255C23.7998 5.65302 23.2899 5.53024 23.1173 5.86788L12.2213 27.1557C12.0873 27.4179 11.7128 27.4179 11.5781 27.1557L0.682511 5.86788C0.509536 5.53024 0 5.65302 0 6.03255V34.3737C0 34.5731 0.161419 34.7349 0.361117 34.7349Z" fill="#073B4C"/>
<path d="M16.026 0H7.77452C7.50477 0 7.33035 0.285282 7.45313 0.525425L11.5789 8.59747C11.7129 8.86 12.0877 8.86 12.2217 8.59747L16.3474 0.525425C16.4702 0.285282 16.2958 0 16.026 0Z" fill="#06D6A0"/>
</svg>
