<svg width="24" height="36" viewBox="0 0 24 36" fill="none" xmlns="http://www.w3.org/2000/svg">
<path d="M0.363859 35.0297H23.6166C23.8175 35.0297 23.9805 34.8667 23.9805 34.6658V6.10943C23.9805 5.72737 23.4667 5.6033 23.2928 5.94351L12.3141 27.393C12.1791 27.6572 11.8018 27.6572 11.6661 27.393L0.687694 5.94351C0.513405 5.6033 0 5.72737 0 6.10943V34.6658C0 34.8667 0.162645 35.0297 0.363859 35.0297Z" fill="#073B4C"/>
<path d="M16.2228 0.0296631H7.90861C7.63681 0.0296631 7.46107 0.317112 7.58478 0.559078L11.7419 8.69242C11.8769 8.95695 12.2545 8.95695 12.3895 8.69242L16.5466 0.559078C16.6703 0.317112 16.4946 0.0296631 16.2228 0.0296631Z" fill="#06D6A0"/>
</svg>
