<svg width="44" height="71" viewBox="0 0 44 71" fill="none" xmlns="http://www.w3.org/2000/svg">
<path d="M0 69.7674V56.7666H2.00954V61.7293C2.28913 61.3099 2.66192 60.9779 3.1279 60.7332C3.59388 60.4886 4.11811 60.3663 4.70058 60.3663C5.3879 60.3663 5.98494 60.5294 6.4917 60.8555C6.99845 61.1817 7.39162 61.6419 7.67121 62.236C7.9508 62.8301 8.09059 63.5291 8.09059 64.3329V69.7674H6.08105V64.5601C6.08105 63.8145 5.91505 63.2321 5.58303 62.8127C5.25102 62.3933 4.78795 62.1836 4.19383 62.1836C3.77445 62.1836 3.39875 62.2826 3.06674 62.4807C2.73473 62.6787 2.47552 62.9466 2.28913 63.2845C2.10274 63.6223 2.00954 64.0126 2.00954 64.4553V69.7674H0Z" fill="#073B4C"/>
<path d="M14.1202 70.0296C13.5144 70.0296 12.9523 69.9073 12.4339 69.6626C11.9155 69.418 11.4641 69.0801 11.0796 68.6491C10.6952 68.2181 10.3952 67.7113 10.1797 67.1289C9.9642 66.5464 9.85645 65.9173 9.85645 65.2416C9.85645 64.5543 9.96712 63.9136 10.1885 63.3195C10.4098 62.7253 10.7185 62.2069 11.1146 61.7642C11.5107 61.3216 11.9737 60.9779 12.5038 60.7333C13.0339 60.4886 13.6076 60.3663 14.225 60.3663C14.8308 60.3663 15.3841 60.4944 15.8851 60.7507C16.386 61.007 16.7996 61.3682 17.1257 61.8341V56.7666H19.1353V69.7675H17.3005L17.2131 68.2996C16.8869 68.8355 16.4559 69.2578 15.92 69.5665C15.3841 69.8752 14.7842 70.0296 14.1202 70.0296ZM14.5396 68.2123C15.0405 68.2123 15.489 68.0812 15.8851 67.8191C16.2812 67.557 16.5928 67.1987 16.8199 66.7444C17.0471 66.2901 17.1607 65.7775 17.1607 65.2067C17.1607 64.6242 17.0471 64.1058 16.8199 63.6515C16.5928 63.1971 16.2812 62.8389 15.8851 62.5768C15.489 62.3147 15.0405 62.1836 14.5396 62.1836C14.0386 62.1836 13.5901 62.3147 13.194 62.5768C12.7979 62.8389 12.4863 63.1971 12.2592 63.6515C12.032 64.1058 11.9184 64.6242 11.9184 65.2067C11.9184 65.7775 12.032 66.2901 12.2592 66.7444C12.4863 67.1987 12.7979 67.557 13.194 67.8191C13.5901 68.0812 14.0386 68.2123 14.5396 68.2123Z" fill="#073B4C"/>
<path d="M25.5481 70.0292C24.8724 70.0292 24.2521 69.9098 23.6871 69.671C23.122 69.4322 22.6299 69.0973 22.2105 68.6663C21.7911 68.2352 21.4678 67.7256 21.2407 67.1373C21.0135 66.549 20.8999 65.8995 20.8999 65.1889C20.8999 64.5015 21.0135 63.8667 21.2407 63.2842C21.4678 62.7017 21.7824 62.192 22.1843 61.7552C22.5862 61.3183 23.0609 60.9776 23.6084 60.7329C24.1559 60.4883 24.7501 60.366 25.3908 60.366C26.0315 60.366 26.6169 60.4796 27.147 60.7067C27.677 60.9339 28.1372 61.2572 28.5274 61.6765C28.9177 62.0959 29.2177 62.5939 29.4274 63.1706C29.637 63.7472 29.7419 64.3851 29.7419 65.084V65.6781H22.9793C23.0376 66.214 23.1803 66.6771 23.4075 67.0674C23.6346 67.4576 23.9288 67.7576 24.2899 67.9673C24.651 68.177 25.0704 68.2818 25.5481 68.2818C26.5033 68.2818 27.2489 67.8566 27.7848 67.0062L29.5497 67.6877C29.34 68.1653 29.0342 68.5818 28.6323 68.9371C28.2304 69.2924 27.7644 69.5633 27.2343 69.7497C26.7043 69.936 26.1422 70.0292 25.5481 70.0292ZM25.3908 61.9911C24.9831 61.9911 24.619 62.0843 24.2987 62.2707C23.9783 62.4571 23.7074 62.7192 23.4861 63.057C23.2648 63.3948 23.1133 63.7909 23.0318 64.2453H27.645C27.5751 63.7909 27.4411 63.3948 27.2431 63.057C27.045 62.7192 26.7858 62.4571 26.4655 62.2707C26.1451 62.0843 25.7869 61.9911 25.3908 61.9911Z" fill="#073B4C"/>
<path d="M31.0171 69.768V68.4399L35.7701 62.254H31.1394V60.6289H38.2514V61.957L33.4984 68.1429H38.5485V69.768H31.0171Z" fill="#073B4C"/>
<path d="M0 52.2444V43.1054H1.8348L1.9047 44.3286C2.17264 43.8742 2.53959 43.5131 3.00558 43.2452C3.47156 42.9772 4.00161 42.8433 4.59574 42.8433C5.23646 42.8433 5.80146 43.0034 6.29074 43.3238C6.78002 43.6442 7.15863 44.0839 7.42657 44.6431C7.60131 44.282 7.83721 43.9674 8.13428 43.6995C8.43134 43.4316 8.78083 43.2219 9.18273 43.0704C9.58464 42.919 10.0186 42.8433 10.4846 42.8433C11.1602 42.8433 11.7485 43.0034 12.2495 43.3238C12.7504 43.6442 13.1377 44.0985 13.4115 44.6868C13.6853 45.2751 13.8222 45.977 13.8222 46.7925V52.2444H11.8126V47.0196C11.8126 46.2624 11.6495 45.6799 11.3233 45.2722C10.9971 44.8645 10.5486 44.6606 9.97781 44.6606C9.58173 44.6606 9.22933 44.7567 8.92062 44.9489C8.61191 45.1411 8.36727 45.4091 8.1867 45.7527C8.00613 46.0964 7.91585 46.4837 7.91585 46.9148V52.2444H5.90631V47.0196C5.90631 46.2624 5.74321 45.6799 5.41703 45.2722C5.09084 44.8645 4.64233 44.6606 4.07151 44.6606C3.67542 44.6606 3.32303 44.7567 3.01431 44.9489C2.7056 45.1411 2.46096 45.4091 2.28039 45.7527C2.09983 46.0964 2.00954 46.4837 2.00954 46.9148V52.2444H0Z" fill="#073B4C"/>
<path d="M18.7855 52.5065C18.3195 52.5065 17.8914 52.4366 17.5011 52.2969C17.1109 52.1571 16.7701 51.959 16.4789 51.7027C16.1876 51.4464 15.9605 51.1435 15.7974 50.7941C15.6343 50.4446 15.5527 50.0601 15.5527 49.6408C15.5527 49.0583 15.7071 48.5486 16.0158 48.1118C16.3245 47.6749 16.7585 47.3342 17.3176 47.0895C17.8768 46.8449 18.5292 46.7226 19.2748 46.7226C19.6825 46.7226 20.0728 46.7604 20.4455 46.8361C20.8183 46.9119 21.1736 47.0196 21.5115 47.1594V46.5828C21.5115 46.175 21.4357 45.8168 21.2843 45.5081C21.1329 45.1994 20.9173 44.9577 20.6378 44.7829C20.3582 44.6082 20.0203 44.5208 19.6242 44.5208C19.2049 44.5208 18.8263 44.6315 18.4884 44.8528C18.1506 45.0741 17.9001 45.3829 17.737 45.7789L15.8847 45.3596C16.0245 44.847 16.2779 44.4043 16.6449 44.0315C17.0118 43.6587 17.4545 43.3675 17.9729 43.1578C18.4913 42.9481 19.0534 42.8433 19.6592 42.8433C20.23 42.8433 20.7513 42.9365 21.2231 43.1229C21.6949 43.3092 22.0998 43.5714 22.4376 43.9092C22.7754 44.247 23.0376 44.6489 23.2239 45.1149C23.4103 45.5809 23.5035 46.0993 23.5035 46.6701V52.2444H21.6687L21.5988 51.0387C21.3542 51.4814 20.9872 51.8367 20.498 52.1046C20.0087 52.3726 19.4379 52.5065 18.7855 52.5065ZM17.5798 49.5534C17.5798 49.8097 17.6496 50.0398 17.7894 50.2436C17.9292 50.4475 18.1244 50.6077 18.3748 50.7242C18.6253 50.8407 18.9194 50.8989 19.2573 50.8989C19.6883 50.8989 20.0728 50.8057 20.4106 50.6193C20.7484 50.4329 21.0164 50.1796 21.2144 49.8592C21.4124 49.5388 21.5115 49.1748 21.5115 48.767V48.5574C21.2086 48.4292 20.897 48.3273 20.5766 48.2516C20.2562 48.1758 19.9271 48.138 19.5893 48.138C18.9835 48.138 18.4972 48.2661 18.1302 48.5224C17.7632 48.7787 17.5798 49.1224 17.5798 49.5534Z" fill="#073B4C"/>
<path d="M25.6699 52.2444V43.1054H27.5047L27.5746 44.3635C27.8426 43.8975 28.2183 43.5277 28.7017 43.2539C29.1852 42.9801 29.7414 42.8433 30.3705 42.8433C31.0578 42.8433 31.6549 43.0064 32.1616 43.3325C32.6684 43.6587 33.0615 44.1189 33.3411 44.713C33.6207 45.3071 33.7605 46.0061 33.7605 46.8099V52.2444H31.751V47.0371C31.751 46.2915 31.585 45.709 31.253 45.2897C30.9209 44.8703 30.4579 44.6606 29.8637 44.6606C29.4444 44.6606 29.0687 44.7596 28.7367 44.9577C28.4046 45.1557 28.1454 45.4236 27.9591 45.7615C27.7727 46.0993 27.6795 46.4896 27.6795 46.9322V52.2444H25.6699Z" fill="#073B4C"/>
<path d="M39.9458 52.5074C39.1304 52.5074 38.4227 52.3326 37.8227 51.9831C37.2228 51.6337 36.7568 51.1356 36.4248 50.4891C36.0928 49.8425 35.9268 49.0824 35.9268 48.2087V43.1062H37.9363V48.2436C37.9363 49.0009 38.1169 49.5979 38.478 50.0348C38.8391 50.4716 39.3342 50.69 39.9633 50.69C40.5924 50.69 41.0875 50.4716 41.4486 50.0348C41.8098 49.5979 41.9903 49.0009 41.9903 48.2436V43.1062H43.9999V48.2087C43.9999 49.0708 43.8339 49.8251 43.5019 50.4716C43.1698 51.1182 42.7009 51.6191 42.0952 51.9744C41.4894 52.3297 40.773 52.5074 39.9458 52.5074Z" fill="#073B4C"/>
<path d="M0.364047 35.0158H23.6289C23.8298 35.0158 23.9929 34.8527 23.9929 34.6518V6.0806C23.9929 5.69835 23.4789 5.57421 23.3049 5.91459L12.3205 27.3752C12.1854 27.6395 11.8079 27.6395 11.6721 27.3752L0.68805 5.91459C0.513671 5.57421 0 5.69835 0 6.0806V34.6518C0 34.8527 0.162729 35.0158 0.364047 35.0158Z" fill="#073B4C"/>
<path d="M16.2307 0H7.91222C7.64028 0 7.46444 0.287598 7.58822 0.529689L11.7475 8.66724C11.8825 8.93191 12.2604 8.93191 12.3955 8.66724L16.5547 0.529689C16.6785 0.287598 16.5026 0 16.2307 0Z" fill="#06D6A0"/>
</svg>
