<svg width="77" height="35" viewBox="0 0 77 35" fill="none" xmlns="http://www.w3.org/2000/svg">
<path d="M32.7803 17.3521V8.28485H34.6007L34.67 9.49844C34.9358 9.04768 35.2999 8.68938 35.7622 8.42355C36.2246 8.15771 36.7504 8.0248 37.3399 8.0248C37.9756 8.0248 38.5361 8.18372 39.0216 8.50156C39.507 8.81941 39.8827 9.25572 40.1485 9.8105C40.3219 9.45221 40.5559 9.14014 40.8506 8.87431C41.1454 8.60847 41.4921 8.40043 41.8909 8.25018C42.2896 8.09992 42.7201 8.0248 43.1825 8.0248C43.8528 8.0248 44.4365 8.18372 44.9335 8.50156C45.4305 8.81941 45.8148 9.27017 46.0864 9.85385C46.358 10.4375 46.4938 11.1339 46.4938 11.943V17.3521H44.5001V12.1683C44.5001 11.4171 44.3383 10.8392 44.0146 10.4346C43.691 10.0301 43.246 9.82784 42.6797 9.82784C42.2867 9.82784 41.9371 9.92319 41.6308 10.1139C41.3245 10.3046 41.0818 10.5704 40.9026 10.9114C40.7235 11.2524 40.6339 11.6367 40.6339 12.0643V17.3521H38.6402V12.1683C38.6402 11.4171 38.4784 10.8392 38.1547 10.4346C37.8311 10.0301 37.3861 9.82784 36.8198 9.82784C36.4268 9.82784 36.0772 9.92319 35.7709 10.1139C35.4646 10.3046 35.2219 10.5704 35.0427 10.9114C34.8636 11.2524 34.774 11.6367 34.774 12.0643V17.3521H32.7803Z" fill="#073B4C"/>
<path d="M51.4173 17.6122C50.955 17.6122 50.5302 17.5428 50.143 17.4041C49.7558 17.2654 49.4178 17.0689 49.1288 16.8147C48.8399 16.5604 48.6145 16.2599 48.4527 15.9131C48.2909 15.5664 48.21 15.185 48.21 14.7689C48.21 14.191 48.3631 13.6853 48.6694 13.2519C48.9757 12.8185 49.4062 12.4804 49.961 12.2377C50.5158 11.995 51.163 11.8736 51.9027 11.8736C52.3073 11.8736 52.6945 11.9112 53.0643 11.9863C53.4342 12.0614 53.7867 12.1683 54.1219 12.307V11.7349C54.1219 11.3304 54.0467 10.975 53.8965 10.6687C53.7462 10.3624 53.5324 10.1226 53.255 9.94922C52.9776 9.77585 52.6424 9.68916 52.2495 9.68916C51.8334 9.68916 51.4578 9.79896 51.1226 10.0186C50.7874 10.2382 50.5389 10.5445 50.3771 10.9374L48.5394 10.5213C48.6781 10.0128 48.9294 9.57358 49.2935 9.20373C49.6576 8.83387 50.0968 8.54492 50.6111 8.33688C51.1255 8.12883 51.6831 8.02481 52.2842 8.02481C52.8505 8.02481 53.3677 8.11727 53.8358 8.3022C54.3039 8.48713 54.7055 8.74718 55.0407 9.08237C55.3759 9.41755 55.636 9.8163 55.8209 10.2786C56.0058 10.7409 56.0983 11.2553 56.0983 11.8216V17.3521H54.2779L54.2086 16.1559C53.9658 16.5951 53.6018 16.9476 53.1163 17.2134C52.6309 17.4792 52.0646 17.6122 51.4173 17.6122ZM50.221 14.6822C50.221 14.9365 50.2904 15.1648 50.4291 15.367C50.5678 15.5693 50.7614 15.7282 51.0099 15.8438C51.2584 15.9594 51.5502 16.0172 51.8854 16.0172C52.313 16.0172 52.6945 15.9247 53.0296 15.7398C53.3648 15.5548 53.6307 15.3035 53.8271 14.9856C54.0236 14.6678 54.1219 14.3066 54.1219 13.902V13.694C53.8214 13.5669 53.5122 13.4657 53.1943 13.3906C52.8765 13.3155 52.55 13.2779 52.2148 13.2779C51.6138 13.2779 51.1312 13.4051 50.7672 13.6593C50.4031 13.9136 50.221 14.2546 50.221 14.6822Z" fill="#073B4C"/>
<path d="M58.249 17.3521V8.28487H60.0694L60.1388 9.53313C60.4046 9.07081 60.7773 8.70384 61.257 8.43223C61.7366 8.16062 62.2885 8.02481 62.9127 8.02481C63.5946 8.02481 64.1869 8.18662 64.6897 8.51025C65.1925 8.83387 65.5826 9.29041 65.86 9.87987C66.1374 10.4693 66.276 11.1628 66.276 11.9603V17.3521H64.2823V12.1857C64.2823 11.446 64.1176 10.8681 63.7882 10.452C63.4588 10.0359 62.9994 9.82786 62.4099 9.82786C61.9938 9.82786 61.6211 9.9261 61.2917 10.1226C60.9623 10.3191 60.7051 10.5849 60.5202 10.9201C60.3352 11.2553 60.2428 11.6425 60.2428 12.0817V17.3521H58.249Z" fill="#073B4C"/>
<path d="M72.4123 17.6104C71.6032 17.6104 70.9011 17.437 70.3059 17.0902C69.7106 16.7435 69.2483 16.2494 68.9189 15.6079C68.5895 14.9665 68.4248 14.2123 68.4248 13.3455V8.28307H70.4186V13.3801C70.4186 14.1314 70.5977 14.7238 70.956 15.1572C71.3143 15.5906 71.8055 15.8073 72.4296 15.8073C73.0538 15.8073 73.545 15.5906 73.9033 15.1572C74.2616 14.7238 74.4407 14.1314 74.4407 13.3801V8.28307H76.4345V13.3455C76.4345 14.2008 76.2698 14.9491 75.9404 15.5906C75.611 16.2321 75.1458 16.7291 74.5448 17.0816C73.9437 17.4341 73.2329 17.6104 72.4123 17.6104Z" fill="#073B4C"/>
<path d="M32.7803 34.738V21.8393H34.774V26.763C35.0514 26.3469 35.4213 26.0175 35.8836 25.7748C36.3459 25.5321 36.866 25.4107 37.4439 25.4107C38.1258 25.4107 38.7182 25.5725 39.221 25.8961C39.7237 26.2198 40.1138 26.6763 40.3912 27.2658C40.6686 27.8552 40.8073 28.5487 40.8073 29.3462V34.738H38.8135V29.5716C38.8135 28.8319 38.6488 28.254 38.3194 27.8379C37.99 27.4218 37.5306 27.2137 36.9411 27.2137C36.5251 27.2137 36.1523 27.312 35.8229 27.5085C35.4935 27.705 35.2363 27.9708 35.0514 28.306C34.8665 28.6412 34.774 29.0284 34.774 29.4676V34.738H32.7803Z" fill="#073B4C"/>
<path d="M46.7893 34.998C46.1883 34.998 45.6306 34.8767 45.1163 34.6339C44.602 34.3912 44.1541 34.0561 43.7727 33.6284C43.3913 33.2008 43.0936 32.698 42.8798 32.1201C42.666 31.5422 42.5591 30.9181 42.5591 30.2477C42.5591 29.5658 42.6689 28.9301 42.8885 28.3406C43.1081 27.7512 43.4144 27.2368 43.8073 26.7976C44.2003 26.3584 44.6597 26.0175 45.1856 25.7748C45.7115 25.532 46.2808 25.4107 46.8933 25.4107C47.4943 25.4107 48.0434 25.5378 48.5403 25.7921C49.0373 26.0464 49.4476 26.4047 49.7713 26.867V21.8393H51.765V34.738H49.9446L49.858 33.2817C49.5343 33.8133 49.1067 34.2323 48.575 34.5386C48.0433 34.8449 47.4481 34.998 46.7893 34.998ZM47.2054 33.195C47.7024 33.195 48.1474 33.065 48.5403 32.8049C48.9333 32.5448 49.2425 32.1894 49.4679 31.7387C49.6933 31.2879 49.8059 30.7794 49.8059 30.213C49.8059 29.6351 49.6933 29.1208 49.4679 28.67C49.2425 28.2193 48.9333 27.8639 48.5403 27.6038C48.1474 27.3438 47.7024 27.2137 47.2054 27.2137C46.7084 27.2137 46.2634 27.3438 45.8704 27.6038C45.4775 27.8639 45.1683 28.2193 44.9429 28.67C44.7175 29.1208 44.6048 29.6351 44.6048 30.213C44.6048 30.7794 44.7175 31.2879 44.9429 31.7387C45.1683 32.1894 45.4775 32.5448 45.8704 32.8049C46.2634 33.065 46.7084 33.195 47.2054 33.195Z" fill="#073B4C"/>
<path d="M58.1277 35C57.4574 35 56.8419 34.8815 56.2814 34.6446C55.7208 34.4076 55.2325 34.0753 54.8164 33.6477C54.4003 33.22 54.0796 32.7144 53.8542 32.1307C53.6288 31.547 53.5161 30.9027 53.5161 30.1976C53.5161 29.5157 53.6288 28.8858 53.8542 28.3079C54.0796 27.73 54.3916 27.2243 54.7904 26.7909C55.1891 26.3575 55.6601 26.0194 56.2033 25.7767C56.7466 25.534 57.336 25.4126 57.9717 25.4126C58.6074 25.4126 59.1882 25.5253 59.7141 25.7507C60.24 25.9761 60.6965 26.2968 61.0837 26.7129C61.4709 27.129 61.7685 27.6231 61.9766 28.1952C62.1846 28.7673 62.2886 29.4001 62.2886 30.0936V30.6831H55.5792C55.637 31.2147 55.7786 31.6742 56.004 32.0614C56.2294 32.4485 56.5212 32.7462 56.8795 32.9542C57.2378 33.1622 57.6539 33.2663 58.1277 33.2663C59.0755 33.2663 59.8152 32.8444 60.3469 32.0007L62.0979 32.6768C61.8899 33.1507 61.5865 33.5639 61.1877 33.9164C60.789 34.2689 60.3267 34.5377 59.8008 34.7226C59.2749 34.9075 58.7172 35 58.1277 35ZM57.9717 27.025C57.5672 27.025 57.206 27.1174 56.8882 27.3024C56.5703 27.4873 56.3016 27.7473 56.082 28.0825C55.8624 28.4177 55.7121 28.8107 55.6312 29.2614H60.2082C60.1388 28.8107 60.0059 28.4177 59.8094 28.0825C59.6129 27.7473 59.3558 27.4873 59.0379 27.3024C58.7201 27.1174 58.3647 27.025 57.9717 27.025Z" fill="#073B4C"/>
<path d="M63.5527 34.7381V33.4205L68.2684 27.2832H63.6741V25.6709H70.7302V26.9885L66.0146 33.1258H71.025V34.7381H63.5527Z" fill="#073B4C"/>
<path d="M0.361187 34.7421H23.4432C23.6426 34.7421 23.8044 34.5803 23.8044 34.3809V6.03425C23.8044 5.65464 23.2944 5.53183 23.1217 5.86954L12.2237 27.1615C12.0897 27.4237 11.7151 27.4237 11.5804 27.1615L0.682643 5.86954C0.509635 5.53183 0 5.65464 0 6.03425V34.3809C0 34.5803 0.161451 34.7421 0.361187 34.7421Z" fill="#073B4C"/>
<path d="M16.0292 0H7.77606C7.50625 0 7.3318 0.285338 7.4546 0.525527L11.5812 8.59914C11.7152 8.86172 12.0901 8.86172 12.2241 8.59914L16.3506 0.525527C16.4734 0.285338 16.299 0 16.0292 0Z" fill="#06D6A0"/>
</svg>
