<svg width="121" height="35" viewBox="0 0 121 35" fill="none" xmlns="http://www.w3.org/2000/svg">
<path d="M32.7725 34.74V25.6746H34.5925L34.6618 26.8879C34.9276 26.4372 35.2916 26.079 35.7538 25.8132C36.2161 25.5475 36.7419 25.4146 37.3312 25.4146C37.9668 25.4146 38.5272 25.5735 39.0126 25.8912C39.4979 26.209 39.8735 26.6453 40.1392 27.1999C40.3126 26.8417 40.5466 26.5297 40.8413 26.2639C41.1359 25.9981 41.4826 25.7901 41.8813 25.6399C42.2799 25.4897 42.7104 25.4146 43.1726 25.4146C43.8429 25.4146 44.4264 25.5735 44.9233 25.8912C45.4202 26.209 45.8044 26.6597 46.076 27.2433C46.3476 27.8268 46.4833 28.5231 46.4833 29.332V34.74H44.49V29.5573C44.49 28.8062 44.3282 28.2284 44.0046 27.8239C43.6811 27.4195 43.2362 27.2173 42.6699 27.2173C42.2771 27.2173 41.9275 27.3126 41.6213 27.5033C41.315 27.6939 41.0724 27.9597 40.8933 28.3006C40.7141 28.6415 40.6246 29.0257 40.6246 29.4533V34.74H38.6312V29.5573C38.6312 28.8062 38.4694 28.2284 38.1459 27.8239C37.8223 27.4195 37.3774 27.2173 36.8112 27.2173C36.4183 27.2173 36.0687 27.3126 35.7625 27.5033C35.4563 27.6939 35.2136 27.9597 35.0345 28.3006C34.8554 28.6415 34.7658 29.0257 34.7658 29.4533V34.74H32.7725Z" fill="#FAFAFA"/>
<path d="M51.4072 35C50.9449 35 50.5203 34.9307 50.1331 34.792C49.746 34.6534 49.408 34.4569 49.1191 34.2027C48.8302 33.9485 48.6049 33.648 48.4431 33.3014C48.2813 32.9547 48.2004 32.5733 48.2004 32.1573C48.2004 31.5796 48.3536 31.074 48.6598 30.6406C48.966 30.2073 49.3965 29.8693 49.9511 29.6266C50.5058 29.384 51.1529 29.2626 51.8925 29.2626C52.2969 29.2626 52.6841 29.3002 53.0538 29.3753C53.4236 29.4504 53.7761 29.5573 54.1112 29.696V29.124C54.1112 28.7195 54.0361 28.3642 53.8859 28.0579C53.7356 27.7517 53.5219 27.5119 53.2445 27.3386C52.9672 27.1653 52.6321 27.0786 52.2392 27.0786C51.8232 27.0786 51.4476 27.1884 51.1125 27.4079C50.7774 27.6275 50.5289 27.9337 50.3671 28.3266L48.5298 27.9106C48.6684 27.4022 48.9198 26.963 49.2838 26.5933C49.6478 26.2235 50.0869 25.9346 50.6011 25.7266C51.1154 25.5186 51.6729 25.4146 52.2738 25.4146C52.8401 25.4146 53.3572 25.507 53.8252 25.6919C54.2932 25.8768 54.6948 26.1368 55.0299 26.4719C55.365 26.807 55.625 27.2057 55.8099 27.6679C55.9948 28.1302 56.0872 28.6444 56.0872 29.2106V34.74H54.2672L54.1979 33.544C53.9552 33.9831 53.5912 34.3356 53.1058 34.6014C52.6205 34.8672 52.0543 35 51.4072 35ZM50.2111 32.0707C50.2111 32.3249 50.2805 32.5531 50.4191 32.7553C50.5578 32.9576 50.7514 33.1165 50.9998 33.232C51.2483 33.3476 51.54 33.4054 51.8752 33.4054C52.3027 33.4054 52.6841 33.3129 53.0192 33.128C53.3543 32.9431 53.6201 32.6918 53.8165 32.374C54.013 32.0562 54.1112 31.6951 54.1112 31.2907V31.0827C53.8107 30.9555 53.5016 30.8544 53.1839 30.7793C52.8661 30.7042 52.5396 30.6666 52.2045 30.6666C51.6036 30.6666 51.1212 30.7938 50.7571 31.048C50.3931 31.3022 50.2111 31.6431 50.2111 32.0707Z" fill="#FAFAFA"/>
<path d="M58.2351 34.74V25.6746H60.0551L60.1245 26.9226C60.3903 26.4604 60.7629 26.0935 61.2425 25.8219C61.7221 25.5503 62.2738 25.4146 62.8978 25.4146C63.5796 25.4146 64.1719 25.5763 64.6745 25.8999C65.1772 26.2235 65.5672 26.6799 65.8446 27.2693C66.1219 27.8586 66.2606 28.5519 66.2606 29.3493V34.74H64.2672V29.5746C64.2672 28.8351 64.1025 28.2573 63.7732 27.8413C63.4439 27.4253 62.9845 27.2173 62.3952 27.2173C61.9792 27.2173 61.6065 27.3155 61.2772 27.5119C60.9478 27.7084 60.6907 27.9742 60.5058 28.3093C60.3209 28.6444 60.2285 29.0315 60.2285 29.4706V34.74H58.2351Z" fill="#FAFAFA"/>
<path d="M72.3964 34.9985C71.5875 34.9985 70.8855 34.8252 70.2904 34.4785C69.6952 34.1319 69.233 33.6378 68.9037 32.9965C68.5743 32.3552 68.4097 31.6011 68.4097 30.7345V25.673H70.403V30.7691C70.403 31.5203 70.5821 32.1125 70.9404 32.5458C71.2986 32.9792 71.7897 33.1958 72.4137 33.1958C73.0377 33.1958 73.5289 32.9792 73.8871 32.5458C74.2453 32.1125 74.4244 31.5203 74.4244 30.7691V25.673H76.4178V30.7345C76.4178 31.5896 76.2531 32.3378 75.9238 32.9792C75.5944 33.6205 75.1293 34.1174 74.5284 34.4699C73.9275 34.8223 73.2168 34.9985 72.3964 34.9985Z" fill="#FAFAFA"/>
<path d="M82.2615 34.7371V21.8409H84.2548V26.7636C84.5322 26.3476 84.902 26.0183 85.3642 25.7756C85.8264 25.533 86.3464 25.4116 86.9242 25.4116C87.606 25.4116 88.1982 25.5734 88.7009 25.897C89.2036 26.2205 89.5936 26.677 89.8709 27.2663C90.1483 27.8557 90.2869 28.549 90.2869 29.3463V34.7371H88.2936V29.5717C88.2936 28.8321 88.1289 28.2543 87.7996 27.8383C87.4702 27.4223 87.0109 27.2143 86.4215 27.2143C86.0055 27.2143 85.6329 27.3125 85.3035 27.509C84.9742 27.7054 84.7171 27.9712 84.5322 28.3063C84.3473 28.6414 84.2548 29.0286 84.2548 29.4677V34.7371H82.2615Z" fill="#FAFAFA"/>
<path d="M96.2667 34.9971C95.6659 34.9971 95.1083 34.8758 94.5941 34.6331C94.0798 34.3904 93.632 34.0553 93.2507 33.6277C92.8694 33.2002 92.5718 32.6975 92.358 32.1197C92.1442 31.5419 92.0374 30.9179 92.0374 30.2477C92.0374 29.5659 92.1471 28.9303 92.3667 28.341C92.5863 27.7517 92.8925 27.2374 93.2854 26.7983C93.6783 26.3592 94.1376 26.0183 94.6634 25.7756C95.1892 25.533 95.7583 25.4116 96.3707 25.4116C96.9716 25.4116 97.5206 25.5387 98.0174 25.793C98.5143 26.0472 98.9246 26.4054 99.2481 26.8676V21.8409H101.241V34.7371H99.4215L99.3348 33.2811C99.0112 33.8126 98.5837 34.2315 98.0521 34.5378C97.5205 34.844 96.9254 34.9971 96.2667 34.9971ZM96.6828 33.1944C97.1797 33.1944 97.6246 33.0644 98.0174 32.8044C98.4103 32.5444 98.7195 32.1891 98.9448 31.7384C99.1701 31.2877 99.2828 30.7793 99.2828 30.213C99.2828 29.6352 99.1701 29.121 98.9448 28.6703C98.7195 28.2197 98.4103 27.8643 98.0174 27.6043C97.6246 27.3443 97.1797 27.2143 96.6828 27.2143C96.1859 27.2143 95.741 27.3443 95.3481 27.6043C94.9552 27.8643 94.6461 28.2197 94.4207 28.6703C94.1954 29.121 94.0827 29.6352 94.0827 30.213C94.0827 30.7793 94.1954 31.2877 94.4207 31.7384C94.6461 32.1891 94.9552 32.5444 95.3481 32.8044C95.741 33.0644 96.1859 33.1944 96.6828 33.1944Z" fill="#FAFAFA"/>
<path d="M107.602 35C106.932 35 106.316 34.8816 105.756 34.6447C105.195 34.4078 104.707 34.0756 104.291 33.648C103.875 33.2205 103.555 32.7149 103.329 32.1313C103.104 31.5478 102.991 30.9035 102.991 30.1986C102.991 29.5169 103.104 28.8871 103.329 28.3093C103.555 27.7315 103.867 27.2259 104.265 26.7926C104.664 26.3592 105.135 26.0212 105.678 25.7786C106.221 25.5359 106.81 25.4146 107.446 25.4146C108.082 25.4146 108.662 25.5272 109.188 25.7526C109.714 25.9779 110.17 26.2986 110.557 26.7146C110.944 27.1306 111.242 27.6246 111.45 28.1966C111.658 28.7686 111.762 29.4013 111.762 30.0946V30.684H105.054C105.112 31.2155 105.253 31.6749 105.479 32.062C105.704 32.4491 105.996 32.7467 106.354 32.9547C106.712 33.1627 107.128 33.2667 107.602 33.2667C108.55 33.2667 109.289 32.8449 109.821 32.0013L111.571 32.6773C111.363 33.1511 111.06 33.5642 110.661 33.9167C110.263 34.2691 109.8 34.5378 109.275 34.7227C108.749 34.9076 108.191 35 107.602 35ZM107.446 27.0266C107.041 27.0266 106.68 27.119 106.363 27.3039C106.045 27.4888 105.776 27.7488 105.557 28.0839C105.337 28.4191 105.187 28.812 105.106 29.2626H109.682C109.613 28.812 109.48 28.4191 109.283 28.0839C109.087 27.7488 108.83 27.4888 108.512 27.3039C108.194 27.119 107.839 27.0266 107.446 27.0266Z" fill="#FAFAFA"/>
<path d="M113.026 34.7385V33.4212L117.74 27.2851H113.147V25.673H120.202V26.9904L115.487 33.1265H120.496V34.7385H113.026Z" fill="#FAFAFA"/>
<path d="M0.361117 34.7348H23.4386C23.638 34.7348 23.7998 34.573 23.7998 34.3737V6.03255C23.7998 5.65302 23.2899 5.53024 23.1173 5.86788L12.2213 27.1557C12.0873 27.4179 11.7128 27.4179 11.5781 27.1557L0.682511 5.86788C0.509536 5.53024 0 5.65302 0 6.03255V34.3737C0 34.573 0.161419 34.7348 0.361117 34.7348Z" fill="#FAFAFA"/>
<path d="M16.0263 0H7.77476C7.50501 0 7.33059 0.285282 7.45337 0.525425L11.5791 8.59746C11.7131 8.85999 12.0879 8.85999 12.2219 8.59746L16.3477 0.525425C16.4705 0.285282 16.296 0 16.0263 0Z" fill="#06D6A0"/>
</svg>
