<svg width="24" height="36" viewBox="0 0 24 36" fill="none" xmlns="http://www.w3.org/2000/svg">
<path d="M0.363859 35.0296H23.6166C23.8175 35.0296 23.9805 34.8666 23.9805 34.6658V6.10937C23.9805 5.72731 23.4667 5.60324 23.2928 5.94345L12.3141 27.3929C12.1791 27.6571 11.8018 27.6571 11.6661 27.3929L0.687694 5.94345C0.513405 5.60324 0 5.72731 0 6.10937V34.6658C0 34.8666 0.162645 35.0296 0.363859 35.0296Z" fill="#FAFAFA"/>
<path d="M16.2228 0.0296021H7.90861C7.63681 0.0296021 7.46107 0.317051 7.58478 0.559017L11.7419 8.69236C11.8769 8.95689 12.2545 8.95689 12.3895 8.69236L16.5466 0.559017C16.6703 0.317051 16.4946 0.0296021 16.2228 0.0296021Z" fill="#06D6A0"/>
</svg>
