<svg width="44" height="71" viewBox="0 0 44 71" fill="none" xmlns="http://www.w3.org/2000/svg">
<path d="M0 69.7674V56.7665H2.00954V61.7292C2.28913 61.3099 2.66192 60.9778 3.1279 60.7332C3.59388 60.4886 4.11811 60.3662 4.70058 60.3662C5.3879 60.3662 5.98494 60.5293 6.4917 60.8555C6.99845 61.1817 7.39162 61.6419 7.67121 62.236C7.9508 62.8301 8.09059 63.5291 8.09059 64.3329V69.7674H6.08105V64.5601C6.08105 63.8145 5.91505 63.232 5.58303 62.8126C5.25102 62.3933 4.78795 62.1836 4.19383 62.1836C3.77445 62.1836 3.39875 62.2826 3.06674 62.4806C2.73473 62.6787 2.47552 62.9466 2.28913 63.2845C2.10274 63.6223 2.00954 64.0125 2.00954 64.4552V69.7674H0Z" fill="#FAFAFA"/>
<path d="M14.1199 70.0295C13.5142 70.0295 12.9521 69.9072 12.4337 69.6626C11.9153 69.4179 11.4638 69.0801 11.0794 68.6491C10.695 68.218 10.395 67.7113 10.1795 67.1288C9.96396 66.5463 9.8562 65.9172 9.8562 65.2416C9.8562 64.5542 9.96687 63.9135 10.1882 63.3194C10.4096 62.7253 10.7183 62.2069 11.1143 61.7642C11.5104 61.3215 11.9735 60.9778 12.5036 60.7332C13.0336 60.4886 13.6073 60.3662 14.2248 60.3662C14.8305 60.3662 15.3839 60.4944 15.8848 60.7507C16.3858 61.007 16.7993 61.3681 17.1255 61.8341V56.7665H19.135V69.7674H17.3002L17.2129 68.2996C16.8867 68.8355 16.4557 69.2577 15.9198 69.5665C15.3839 69.8752 14.784 70.0295 14.1199 70.0295ZM14.5393 68.2122C15.0402 68.2122 15.4887 68.0811 15.8848 67.819C16.2809 67.5569 16.5925 67.1987 16.8197 66.7444C17.0469 66.29 17.1605 65.7774 17.1605 65.2066C17.1605 64.6241 17.0469 64.1057 16.8197 63.6514C16.5925 63.1971 16.2809 62.8389 15.8848 62.5767C15.4887 62.3146 15.0402 62.1836 14.5393 62.1836C14.0384 62.1836 13.5899 62.3146 13.1938 62.5767C12.7977 62.8389 12.4861 63.1971 12.2589 63.6514C12.0317 64.1057 11.9182 64.6241 11.9182 65.2066C11.9182 65.7774 12.0317 66.29 12.2589 66.7444C12.4861 67.1987 12.7977 67.5569 13.1938 67.819C13.5899 68.0811 14.0384 68.2122 14.5393 68.2122Z" fill="#FAFAFA"/>
<path d="M25.5481 70.0293C24.8724 70.0293 24.2521 69.9098 23.6871 69.671C23.122 69.4322 22.6299 69.0973 22.2105 68.6663C21.7911 68.2352 21.4678 67.7256 21.2407 67.1373C21.0135 66.549 20.8999 65.8995 20.8999 65.1889C20.8999 64.5016 21.0135 63.8667 21.2407 63.2842C21.4678 62.7017 21.7824 62.192 22.1843 61.7552C22.5862 61.3183 23.0609 60.9776 23.6084 60.7329C24.1559 60.4883 24.7501 60.366 25.3908 60.366C26.0315 60.366 26.6169 60.4796 27.147 60.7067C27.677 60.9339 28.1372 61.2572 28.5274 61.6765C28.9177 62.0959 29.2177 62.5939 29.4274 63.1706C29.637 63.7472 29.7419 64.3851 29.7419 65.084V65.6782H22.9793C23.0376 66.214 23.1803 66.6771 23.4075 67.0674C23.6346 67.4576 23.9288 67.7576 24.2899 67.9673C24.651 68.177 25.0704 68.2818 25.5481 68.2818C26.5033 68.2818 27.2489 67.8566 27.7848 67.0062L29.5497 67.6877C29.34 68.1653 29.0342 68.5818 28.6323 68.9371C28.2304 69.2924 27.7644 69.5633 27.2343 69.7497C26.7043 69.9361 26.1422 70.0293 25.5481 70.0293ZM25.3908 61.9911C24.9831 61.9911 24.619 62.0843 24.2987 62.2707C23.9783 62.4571 23.7074 62.7192 23.4861 63.057C23.2648 63.3948 23.1133 63.7909 23.0318 64.2453H27.645C27.5751 63.7909 27.4411 63.3948 27.2431 63.057C27.045 62.7192 26.7858 62.4571 26.4655 62.2707C26.1451 62.0843 25.7869 61.9911 25.3908 61.9911Z" fill="#FAFAFA"/>
<path d="M31.0171 69.768V68.4399L35.7701 62.254H31.1394V60.6289H38.2514V61.957L33.4984 68.1429H38.5485V69.768H31.0171Z" fill="#FAFAFA"/>
<path d="M0 52.2444V43.1054H1.8348L1.9047 44.3286C2.17264 43.8743 2.53959 43.5131 3.00558 43.2452C3.47156 42.9772 4.00161 42.8433 4.59574 42.8433C5.23646 42.8433 5.80146 43.0035 6.29074 43.3238C6.78002 43.6442 7.15863 44.0839 7.42657 44.6431C7.60131 44.282 7.83721 43.9675 8.13428 43.6995C8.43134 43.4316 8.78083 43.2219 9.18273 43.0704C9.58464 42.919 10.0186 42.8433 10.4846 42.8433C11.1602 42.8433 11.7485 43.0035 12.2495 43.3238C12.7504 43.6442 13.1377 44.0985 13.4115 44.6868C13.6853 45.2751 13.8222 45.977 13.8222 46.7925V52.2444H11.8126V47.0196C11.8126 46.2624 11.6495 45.6799 11.3233 45.2722C10.9971 44.8645 10.5486 44.6606 9.97781 44.6606C9.58173 44.6606 9.22933 44.7567 8.92062 44.9489C8.61191 45.1411 8.36727 45.4091 8.1867 45.7527C8.00613 46.0964 7.91585 46.4837 7.91585 46.9148V52.2444H5.90631V47.0196C5.90631 46.2624 5.74321 45.6799 5.41703 45.2722C5.09084 44.8645 4.64233 44.6606 4.07151 44.6606C3.67542 44.6606 3.32303 44.7567 3.01431 44.9489C2.7056 45.1411 2.46096 45.4091 2.28039 45.7527C2.09983 46.0964 2.00954 46.4837 2.00954 46.9148V52.2444H0Z" fill="#FAFAFA"/>
<path d="M18.7855 52.5066C18.3195 52.5066 17.8914 52.4367 17.5011 52.2969C17.1109 52.1571 16.7701 51.959 16.4789 51.7027C16.1876 51.4464 15.9605 51.1436 15.7974 50.7941C15.6343 50.4446 15.5527 50.0602 15.5527 49.6408C15.5527 49.0583 15.7071 48.5486 16.0158 48.1118C16.3245 47.6749 16.7585 47.3342 17.3176 47.0895C17.8768 46.8449 18.5292 46.7226 19.2748 46.7226C19.6825 46.7226 20.0728 46.7604 20.4455 46.8362C20.8183 46.9119 21.1736 47.0196 21.5115 47.1594V46.5828C21.5115 46.175 21.4357 45.8168 21.2843 45.5081C21.1329 45.1994 20.9173 44.9577 20.6378 44.7829C20.3582 44.6082 20.0203 44.5208 19.6242 44.5208C19.2049 44.5208 18.8263 44.6315 18.4884 44.8528C18.1506 45.0742 17.9001 45.3829 17.737 45.779L15.8847 45.3596C16.0245 44.847 16.2779 44.4043 16.6449 44.0315C17.0118 43.6587 17.4545 43.3675 17.9729 43.1578C18.4913 42.9481 19.0534 42.8433 19.6592 42.8433C20.23 42.8433 20.7513 42.9365 21.2231 43.1229C21.6949 43.3093 22.0998 43.5714 22.4376 43.9092C22.7754 44.247 23.0376 44.649 23.2239 45.1149C23.4103 45.5809 23.5035 46.0993 23.5035 46.6701V52.2444H21.6687L21.5988 51.0387C21.3542 51.4814 20.9872 51.8367 20.498 52.1046C20.0087 52.3726 19.4379 52.5066 18.7855 52.5066ZM17.5798 49.5534C17.5798 49.8097 17.6496 50.0398 17.7894 50.2436C17.9292 50.4475 18.1244 50.6077 18.3748 50.7242C18.6253 50.8407 18.9194 50.8989 19.2573 50.8989C19.6883 50.8989 20.0728 50.8057 20.4106 50.6193C20.7484 50.4329 21.0164 50.1796 21.2144 49.8592C21.4124 49.5388 21.5115 49.1748 21.5115 48.7671V48.5574C21.2086 48.4292 20.897 48.3273 20.5766 48.2516C20.2562 48.1758 19.9271 48.138 19.5893 48.138C18.9835 48.138 18.4972 48.2661 18.1302 48.5224C17.7632 48.7787 17.5798 49.1224 17.5798 49.5534Z" fill="#FAFAFA"/>
<path d="M25.6697 52.2444V43.1054H27.5045L27.5744 44.3635C27.8423 43.8976 28.218 43.5277 28.7015 43.2539C29.1849 42.9802 29.7412 42.8433 30.3703 42.8433C31.0576 42.8433 31.6546 43.0064 32.1614 43.3326C32.6681 43.6587 33.0613 44.1189 33.3409 44.713C33.6205 45.3072 33.7603 46.0061 33.7603 46.8099V52.2444H31.7507V47.0371C31.7507 46.2915 31.5847 45.7091 31.2527 45.2897C30.9207 44.8703 30.4576 44.6606 29.8635 44.6606C29.4441 44.6606 29.0684 44.7596 28.7364 44.9577C28.4044 45.1557 28.1452 45.4236 27.9588 45.7615C27.7724 46.0993 27.6792 46.4896 27.6792 46.9323V52.2444H25.6697Z" fill="#FAFAFA"/>
<path d="M39.9461 52.5074C39.1306 52.5074 38.4229 52.3327 37.823 51.9832C37.223 51.6337 36.757 51.1357 36.425 50.4891C36.093 49.8426 35.927 49.0824 35.927 48.2087V43.1062H37.9365V48.2437C37.9365 49.0009 38.1171 49.5979 38.4782 50.0348C38.8394 50.4716 39.3345 50.6901 39.9636 50.6901C40.5926 50.6901 41.0877 50.4716 41.4489 50.0348C41.81 49.5979 41.9906 49.0009 41.9906 48.2437V43.1062H44.0001V48.2087C44.0001 49.0708 43.8341 49.8251 43.5021 50.4716C43.1701 51.1182 42.7012 51.6191 42.0954 51.9744C41.4896 52.3297 40.7732 52.5074 39.9461 52.5074Z" fill="#FAFAFA"/>
<path d="M0.364047 35.0158H23.6289C23.8298 35.0158 23.9929 34.8527 23.9929 34.6518V6.08058C23.9929 5.69833 23.4789 5.57419 23.3049 5.91458L12.3205 27.3752C12.1854 27.6395 11.8079 27.6395 11.6721 27.3752L0.68805 5.91458C0.513671 5.57419 0 5.69833 0 6.08058V34.6518C0 34.8527 0.162729 35.0158 0.364047 35.0158Z" fill="#FAFAFA"/>
<path d="M16.2307 0H7.91222C7.64028 0 7.46444 0.287598 7.58822 0.529689L11.7475 8.66724C11.8825 8.93191 12.2604 8.93191 12.3955 8.66724L16.5547 0.529689C16.6785 0.287598 16.5026 0 16.2307 0Z" fill="#06D6A0"/>
</svg>
