<svg width="77" height="35" viewBox="0 0 77 35" fill="none" xmlns="http://www.w3.org/2000/svg">
<path d="M32.8044 17.3521V8.28485H34.6248L34.6942 9.49844C34.96 9.04768 35.3241 8.68938 35.7864 8.42355C36.2487 8.15771 36.7746 8.0248 37.3641 8.0248C37.9998 8.0248 38.5603 8.18372 39.0458 8.50156C39.5312 8.81941 39.9068 9.25572 40.1727 9.81051C40.346 9.45221 40.5801 9.14014 40.8748 8.87431C41.1695 8.60847 41.5163 8.40043 41.915 8.25018C42.3138 8.09992 42.7443 8.0248 43.2066 8.0248C43.877 8.0248 44.4607 8.18372 44.9577 8.50156C45.4547 8.81941 45.839 9.27017 46.1106 9.85385C46.3822 10.4375 46.518 11.1339 46.518 11.943V17.3521H44.5243V12.1683C44.5243 11.4171 44.3624 10.8392 44.0388 10.4346C43.7152 10.0301 43.2702 9.82784 42.7039 9.82784C42.3109 9.82784 41.9613 9.9232 41.655 10.1139C41.3487 10.3046 41.106 10.5704 40.9268 10.9114C40.7477 11.2524 40.6581 11.6367 40.6581 12.0643V17.3521H38.6644V12.1683C38.6644 11.4171 38.5025 10.8392 38.1789 10.4346C37.8553 10.0301 37.4103 9.82784 36.844 9.82784C36.451 9.82784 36.1014 9.9232 35.7951 10.1139C35.4888 10.3046 35.2461 10.5704 35.0669 10.9114C34.8878 11.2524 34.7982 11.6367 34.7982 12.0643V17.3521H32.8044Z" fill="#FAFAFA"/>
<path d="M51.4415 17.6122C50.9792 17.6122 50.5544 17.5428 50.1672 17.4041C49.78 17.2654 49.4419 17.0689 49.153 16.8147C48.864 16.5604 48.6387 16.2599 48.4768 15.9131C48.315 15.5664 48.2341 15.185 48.2341 14.7689C48.2341 14.191 48.3873 13.6853 48.6936 13.2519C48.9998 12.8185 49.4304 12.4804 49.9852 12.2377C50.5399 11.995 51.1872 11.8736 51.9269 11.8736C52.3314 11.8736 52.7186 11.9112 53.0885 11.9863C53.4583 12.0614 53.8109 12.1684 54.146 12.307V11.7349C54.146 11.3304 54.0709 10.975 53.9207 10.6687C53.7704 10.3624 53.5566 10.1226 53.2792 9.94922C53.0018 9.77585 52.6666 9.68916 52.2737 9.68916C51.8576 9.68916 51.4819 9.79896 51.1467 10.0186C50.8116 10.2382 50.5631 10.5445 50.4013 10.9374L48.5635 10.5213C48.7022 10.0128 48.9536 9.57358 49.3177 9.20373C49.6818 8.83387 50.121 8.54492 50.6353 8.33688C51.1496 8.12883 51.7073 8.02481 52.3083 8.02481C52.8747 8.02481 53.3919 8.11727 53.86 8.3022C54.3281 8.48713 54.7297 8.74719 55.0649 9.08237C55.4001 9.41755 55.6601 9.8163 55.8451 10.2786C56.03 10.7409 56.1225 11.2553 56.1225 11.8216V17.3521H54.3021L54.2327 16.1559C53.99 16.5951 53.6259 16.9476 53.1405 17.2134C52.6551 17.4793 52.0887 17.6122 51.4415 17.6122ZM50.2452 14.6822C50.2452 14.9365 50.3146 15.1648 50.4533 15.367C50.592 15.5693 50.7856 15.7282 51.0341 15.8438C51.2826 15.9594 51.5744 16.0172 51.9096 16.0172C52.3372 16.0172 52.7186 15.9247 53.0538 15.7398C53.389 15.5548 53.6548 15.3035 53.8513 14.9856C54.0478 14.6678 54.146 14.3066 54.146 13.9021V13.694C53.8455 13.5669 53.5364 13.4657 53.2185 13.3906C52.9007 13.3155 52.5742 13.2779 52.239 13.2779C51.638 13.2779 51.1554 13.4051 50.7913 13.6593C50.4273 13.9136 50.2452 14.2546 50.2452 14.6822Z" fill="#FAFAFA"/>
<path d="M58.2734 17.3521V8.28487H60.0938L60.1632 9.53313C60.429 9.07081 60.8018 8.70384 61.2814 8.43223C61.7611 8.16062 62.313 8.02481 62.9371 8.02481C63.619 8.02481 64.2114 8.18662 64.7141 8.51025C65.2169 8.83387 65.607 9.29041 65.8844 9.87987C66.1618 10.4693 66.3005 11.1628 66.3005 11.9603V17.3521H64.3067V12.1857C64.3067 11.446 64.142 10.8681 63.8126 10.452C63.4832 10.0359 63.0238 9.82786 62.4343 9.82786C62.0182 9.82786 61.6455 9.9261 61.3161 10.1226C60.9867 10.3191 60.7295 10.5849 60.5446 10.9201C60.3597 11.2553 60.2672 11.6425 60.2672 12.0817V17.3521H58.2734Z" fill="#FAFAFA"/>
<path d="M72.4362 17.6104C71.6272 17.6104 70.925 17.437 70.3298 17.0903C69.7346 16.7435 69.2722 16.2494 68.9428 15.6079C68.6134 14.9665 68.4487 14.2123 68.4487 13.3455V8.28306H70.4425V13.3801C70.4425 14.1314 70.6216 14.7238 70.9799 15.1572C71.3382 15.5906 71.8294 15.8073 72.4536 15.8073C73.0777 15.8073 73.5689 15.5906 73.9272 15.1572C74.2855 14.7238 74.4647 14.1314 74.4647 13.3801V8.28306H76.4584V13.3455C76.4584 14.2008 76.2937 14.9491 75.9643 15.5906C75.6349 16.2321 75.1697 16.7291 74.5687 17.0816C73.9677 17.4341 73.2569 17.6104 72.4362 17.6104Z" fill="#FAFAFA"/>
<path d="M32.8044 34.738V21.8393H34.7982V26.763C35.0756 26.3469 35.4454 26.0175 35.9078 25.7748C36.3701 25.5321 36.8902 25.4107 37.4681 25.4107C38.15 25.4107 38.7424 25.5725 39.2451 25.8962C39.7479 26.2198 40.138 26.6763 40.4154 27.2658C40.6928 27.8552 40.8315 28.5487 40.8315 29.3462V34.738H38.8377V29.5716C38.8377 28.8319 38.673 28.254 38.3436 27.8379C38.0142 27.4218 37.5548 27.2138 36.9653 27.2138C36.5492 27.2138 36.1765 27.312 35.8471 27.5085C35.5177 27.705 35.2605 27.9708 35.0756 28.306C34.8907 28.6412 34.7982 29.0284 34.7982 29.4676V34.738H32.8044Z" fill="#FAFAFA"/>
<path d="M46.8132 34.9981C46.2122 34.9981 45.6545 34.8767 45.1402 34.634C44.6259 34.3913 44.178 34.0561 43.7966 33.6285C43.4152 33.2008 43.1176 32.698 42.9037 32.1201C42.6899 31.5422 42.583 30.9181 42.583 30.2477C42.583 29.5658 42.6928 28.9301 42.9124 28.3407C43.132 27.7512 43.4383 27.2369 43.8313 26.7977C44.2242 26.3585 44.6837 26.0175 45.2096 25.7748C45.7355 25.5321 46.3047 25.4107 46.9173 25.4107C47.5183 25.4107 48.0673 25.5379 48.5643 25.7921C49.0613 26.0464 49.4716 26.4047 49.7952 26.867V21.8393H51.789V34.738H49.9686L49.8819 33.2817C49.5583 33.8134 49.1306 34.2324 48.5989 34.5386C48.0673 34.8449 47.472 34.9981 46.8132 34.9981ZM47.2293 33.195C47.7263 33.195 48.1713 33.065 48.5643 32.8049C48.9573 32.5449 49.2664 32.1895 49.4918 31.7387C49.7172 31.288 49.8299 30.7794 49.8299 30.2131C49.8299 29.6352 49.7172 29.1208 49.4918 28.6701C49.2664 28.2193 48.9573 27.8639 48.5643 27.6038C48.1713 27.3438 47.7263 27.2138 47.2293 27.2138C46.7323 27.2138 46.2873 27.3438 45.8944 27.6038C45.5014 27.8639 45.1922 28.2193 44.9668 28.6701C44.7415 29.1208 44.6288 29.6352 44.6288 30.2131C44.6288 30.7794 44.7415 31.288 44.9668 31.7387C45.1922 32.1895 45.5014 32.5449 45.8944 32.8049C46.2873 33.065 46.7323 33.195 47.2293 33.195Z" fill="#FAFAFA"/>
<path d="M58.1519 35C57.4816 35 56.8661 34.8816 56.3055 34.6446C55.745 34.4077 55.2566 34.0754 54.8406 33.6477C54.4245 33.2201 54.1037 32.7144 53.8784 32.1308C53.653 31.5471 53.5403 30.9027 53.5403 30.1977C53.5403 29.5158 53.653 28.8858 53.8784 28.3079C54.1037 27.73 54.4158 27.2244 54.8146 26.791C55.2133 26.3575 55.6843 26.0195 56.2275 25.7767C56.7707 25.534 57.3602 25.4127 57.9959 25.4127C58.6316 25.4127 59.2124 25.5254 59.7383 25.7507C60.2641 25.9761 60.7207 26.2969 61.1079 26.7129C61.4951 27.129 61.7927 27.6231 62.0007 28.1953C62.2088 28.7674 62.3128 29.4002 62.3128 30.0937V30.6831H55.6034C55.6612 31.2148 55.8028 31.6742 56.0281 32.0614C56.2535 32.4486 56.5454 32.7462 56.9037 32.9543C57.262 33.1623 57.678 33.2663 58.1519 33.2663C59.0997 33.2663 59.8394 32.8445 60.3711 32.0007L62.1221 32.6769C61.9141 33.1507 61.6107 33.5639 61.2119 33.9165C60.8132 34.269 60.3508 34.5377 59.8249 34.7226C59.2991 34.9076 58.7414 35 58.1519 35ZM57.9959 27.025C57.5914 27.025 57.2302 27.1175 56.9123 27.3024C56.5945 27.4873 56.3258 27.7474 56.1062 28.0826C55.8866 28.4177 55.7363 28.8107 55.6554 29.2615H60.2324C60.163 28.8107 60.0301 28.4177 59.8336 28.0826C59.6371 27.7474 59.38 27.4873 59.0621 27.3024C58.7443 27.1175 58.3889 27.025 57.9959 27.025Z" fill="#FAFAFA"/>
<path d="M63.5771 34.7382V33.4206L68.2928 27.2833H63.6985V25.6709H70.7547V26.9885L66.039 33.1258H71.0494V34.7382H63.5771Z" fill="#FAFAFA"/>
<path d="M0.361188 34.7421H23.4432C23.6426 34.7421 23.8044 34.5803 23.8044 34.381V6.03424C23.8044 5.65463 23.2944 5.53183 23.1218 5.86954L12.2237 27.1615C12.0897 27.4238 11.7151 27.4238 11.5804 27.1615L0.682644 5.86954C0.509636 5.53183 0 5.65463 0 6.03424V34.381C0 34.5803 0.161451 34.7421 0.361188 34.7421Z" fill="#FAFAFA"/>
<path d="M16.0289 0H7.77581C7.506 0 7.33155 0.285338 7.45435 0.525528L11.5809 8.59915C11.7149 8.86173 12.0898 8.86173 12.2238 8.59915L16.3504 0.525528C16.4732 0.285338 16.2988 0 16.0289 0Z" fill="#06D6A0"/>
</svg>
